<?xml version="1.0" encoding="UTF-8"?> <svg xmlns="http://www.w3.org/2000/svg" width="58" height="58" viewBox="0 0 58 58" fill="none"> <path d="M28.6394 57.2788C12.8483 57.2788 0 44.4305 0 28.6394C0 12.8483 12.8483 0 28.6394 0C44.4305 0 57.2788 12.8483 57.2788 28.6394C57.2788 44.4305 44.4305 57.2788 28.6394 57.2788ZM28.6394 1.9706C13.9322 1.9706 1.9706 13.9322 1.9706 28.6394C1.9706 43.3467 13.9322 55.3082 28.6394 55.3082C43.3467 55.3082 55.3082 43.3467 55.3082 28.6394C55.3082 13.9322 43.3467 1.9706 28.6394 1.9706Z" fill="#94A488"></path> <path d="M12.0115 20.1527C13.5682 20.1527 16.892 20.1527 18.0152 20.1527C18.2451 20.1527 18.4553 20.2906 18.5539 20.5008C19.9333 23.5027 21.6149 26.2156 23.638 28.6066C23.8088 28.889 24.2358 28.8562 24.3606 28.5475C24.9912 27.0104 26.1604 23.2663 23.9008 20.6059C23.6971 20.3695 23.7825 19.995 24.065 19.8768C26.3509 18.9244 28.5908 18.7864 30.7716 19.7586C31.2314 19.9622 31.527 20.4154 31.527 20.9212L32.0394 28.6329C32.0394 28.9744 32.3546 29.2503 32.6896 29.1781C35.1989 28.646 36.6768 24.8821 38.1416 20.9541C38.319 20.468 38.7788 20.1461 39.2977 20.1461H44.8286C45.2818 20.1461 45.6431 20.5468 45.5643 20.9935C45.0453 23.7786 42.2405 27.3914 40.7757 29.1321C40.2699 29.7298 40.2633 30.61 40.7757 31.2143L45.7219 37.1064C46.0766 37.5268 45.7745 38.1771 45.2227 38.1771H38.9627C38.4504 38.1771 37.9577 37.9604 37.6096 37.586L33.2349 33.9403C33.005 33.6907 32.578 33.6053 32.3612 33.8615C31.816 34.5184 31.862 35.3329 31.6058 37.1787C31.527 37.7567 31.0081 38.1706 30.4234 38.1706H26.1407C25.5298 38.1706 24.932 38.0458 24.3803 37.783C21.9236 36.6204 15.217 32.4952 11.44 20.9409C11.3152 20.5534 11.6042 20.1527 12.0115 20.1527Z" fill="#94A488"></path> </svg> 