<?xml version="1.0" encoding="UTF-8"?> <svg xmlns="http://www.w3.org/2000/svg" width="167" height="167" viewBox="0 0 167 167" fill="none"> <circle cx="84.0366" cy="82.9631" r="76.7433" fill="#A3AE9D" stroke="white" stroke-width="7.08805"></circle> <circle cx="83.5" cy="83.5" r="81.5126" stroke="#C7C7C7" stroke-width="2.02516"></circle> <path d="M39.8808 75.6289L34.4897 64.5356L33.2456 66.6091V75.6289H30.239V51.4379H33.2456V62.0474L39.708 51.4379H42.922L36.3559 62.0128L43.2676 75.6289H39.8808ZM55.5423 53.7188L52.7431 66.9201H58.3761L55.5423 53.7188ZM60.2423 75.6289L58.9291 69.512H52.1902L50.8424 75.6289H47.7667L53.6071 51.4379H57.5813L63.318 75.6289H60.2423ZM82.7399 75.6289V53.9261L79.0422 67.5076H76.1738L72.476 53.9261V75.6289H69.7114V51.4379H74.5841L77.7289 63.8099L80.8392 51.4379H85.6083V75.6289H82.7399ZM92.6888 75.6289V73.1061H95.1079V53.9607H92.6888V51.4379H100.534V53.9607H98.1144V73.1061H100.534V75.6289H92.6888ZM107.631 75.6289V51.4379H110.638V73.0025H118.344V75.6289H107.631ZM130.1 53.7188L127.301 66.9201H132.934L130.1 53.7188ZM134.8 75.6289L133.486 69.512H126.748L125.4 75.6289H122.324L128.164 51.4379H132.139L137.875 75.6289H134.8Z" fill="white"></path> <path d="M49.3569 81.0038C50.9786 81.0038 52.6333 81.1555 54.3209 81.4587C56.0085 81.7488 57.65 82.1971 59.2454 82.8035C60.8407 83.41 62.3438 84.1747 63.7545 85.0977C65.1653 86.0074 66.398 87.0754 67.4528 88.3015C68.5076 89.5277 69.3382 90.9121 69.9447 92.4547C70.5644 93.9973 70.8742 95.7047 70.8742 97.5769C70.8742 99.4491 70.5446 101.183 69.8854 102.778C69.2261 104.374 68.3032 105.751 67.1166 106.912C65.93 108.072 64.5126 108.982 62.8645 109.641C61.2165 110.3 59.4036 110.63 57.4259 110.63C56.4898 110.63 55.5207 110.557 54.5187 110.412C53.5167 110.28 52.5146 110.069 51.5126 109.779C50.5106 109.489 49.5217 109.133 48.5461 108.711C47.5836 108.276 46.6607 107.762 45.7773 107.169C44.7357 108.197 43.5293 109.001 42.1581 109.582C40.8001 110.148 39.363 110.432 37.8467 110.432C37.0293 110.432 36.2646 110.34 35.5526 110.155C34.8406 109.97 34.221 109.707 33.6936 109.364C33.1794 109.021 32.7707 108.606 32.4674 108.118C32.1773 107.63 32.0323 107.09 32.0323 106.496C32.0323 105.982 32.1576 105.501 32.4081 105.053C32.6718 104.604 33.0343 104.209 33.4958 103.866C33.9705 103.523 34.5308 103.253 35.1768 103.055C35.8361 102.857 36.5546 102.758 37.3325 102.758C39.6267 102.758 42.3427 103.602 45.4806 105.29C46.0608 104.565 46.5354 103.747 46.9046 102.838C47.3133 101.822 47.6297 100.781 47.8539 99.7128C48.0912 98.6317 48.2955 97.5571 48.4669 96.4892C48.6515 95.4212 48.8361 94.3796 49.0207 93.3644C49.2185 92.3492 49.4822 91.3933 49.8118 90.4968C50.1546 89.6002 50.5963 88.7828 51.1368 88.0444C51.6906 87.2929 52.4091 86.6535 53.2925 86.1261C53.4244 86.0601 53.543 86.0272 53.6485 86.0272C53.8331 86.0272 54.0045 86.0931 54.1627 86.225C54.3341 86.3568 54.4198 86.5414 54.4198 86.7787C54.4198 87.0556 54.2945 87.2665 54.044 87.4116C53.3453 87.8203 52.7717 88.3345 52.3234 88.9542C51.8884 89.5607 51.5258 90.2463 51.2357 91.011C50.9457 91.7757 50.7149 92.5997 50.5435 93.4831C50.3721 94.3665 50.2073 95.2894 50.0491 96.2519C49.9173 97.0429 49.7722 97.8736 49.614 98.7437C49.4558 99.6007 49.258 100.458 49.0207 101.315C48.7834 102.159 48.4801 102.989 48.111 103.807C47.755 104.611 47.3133 105.356 46.7859 106.041C46.8123 106.055 46.8255 106.068 46.8255 106.081C46.8386 106.081 46.8584 106.088 46.8848 106.101C48.5592 107.103 50.2996 107.861 52.1059 108.375C53.9122 108.889 55.6789 109.146 57.4061 109.146C59.2783 109.146 60.9528 108.837 62.4295 108.217C63.9193 107.597 65.1784 106.767 66.2068 105.725C67.2352 104.67 68.0197 103.444 68.5603 102.046C69.1009 100.649 69.3712 99.1722 69.3712 97.6165C69.3712 96.0343 69.1075 94.5642 68.5801 93.2062C68.0527 91.835 67.3275 90.5891 66.4046 89.4684C65.4949 88.3477 64.4071 87.3522 63.1414 86.4821C61.8889 85.6119 60.5309 84.8867 59.0674 84.3066C57.6171 83.7133 56.0877 83.265 54.4791 82.9618C52.8838 82.6453 51.2819 82.4871 49.6733 82.4871C47.5111 82.4871 45.5334 82.6717 43.7403 83.0409C41.9603 83.3969 40.4243 83.9242 39.1322 84.623C37.8533 85.3218 36.8579 86.1788 36.1459 87.194C35.4339 88.2092 35.078 89.3629 35.078 90.655C35.078 91.3933 35.1834 92.046 35.3944 92.6129C35.6185 93.1798 35.8954 93.6743 36.225 94.0962C36.5678 94.5049 36.937 94.8543 37.3325 95.1443C37.7281 95.4344 38.0972 95.6717 38.44 95.8563C38.7828 96.0277 39.0729 96.153 39.3102 96.2321C39.5607 96.3112 39.7058 96.3573 39.7453 96.3705C39.9167 96.4101 40.0486 96.5024 40.1409 96.6474C40.2463 96.7792 40.2991 96.9309 40.2991 97.1023C40.2991 97.3264 40.22 97.4978 40.0617 97.6165C39.9035 97.7351 39.7321 97.7945 39.5475 97.7945C39.2839 97.7945 38.9542 97.7351 38.5587 97.6165C38.1632 97.4846 37.7413 97.2934 37.293 97.0429C36.8579 96.7792 36.4162 96.4562 35.9679 96.0739C35.5328 95.6783 35.1373 95.2169 34.7813 94.6895C34.4253 94.1621 34.1353 93.5622 33.9111 92.8898C33.7002 92.2174 33.5947 91.4724 33.5947 90.655C33.5947 89.1651 33.9705 87.8269 34.722 86.6403C35.4867 85.4405 36.5612 84.4253 37.9456 83.5946C39.33 82.764 40.9847 82.1245 42.9096 81.6763C44.8478 81.228 46.9969 81.0038 49.3569 81.0038ZM44.4127 106.417C43.0415 105.692 41.7692 105.145 40.5957 104.776C39.4223 104.407 38.3477 104.222 37.3721 104.222C36.8183 104.222 36.3041 104.288 35.8295 104.42C35.368 104.538 34.9659 104.703 34.6231 104.914C34.2803 105.125 34.01 105.369 33.8122 105.646C33.6145 105.923 33.5156 106.213 33.5156 106.516C33.5156 106.806 33.6013 107.096 33.7727 107.386C33.9573 107.676 34.2276 107.933 34.5835 108.158C34.9527 108.382 35.4076 108.566 35.9481 108.711C36.4887 108.856 37.1216 108.929 37.8467 108.929C39.0861 108.929 40.2661 108.711 41.3868 108.276C42.5207 107.828 43.5293 107.208 44.4127 106.417ZM78.4211 107.92C78.698 108.303 79.0539 108.612 79.489 108.85C79.9241 109.074 80.4581 109.186 81.091 109.186C81.737 109.186 82.3237 109.034 82.8511 108.731C83.3785 108.415 83.8597 108.006 84.2948 107.505C84.7299 107.004 85.1189 106.444 85.4617 105.824C85.8045 105.204 86.1143 104.585 86.3912 103.965C86.4571 103.82 86.5494 103.714 86.6681 103.648C86.7867 103.569 86.9186 103.53 87.0636 103.53C87.2877 103.53 87.4657 103.609 87.5976 103.767C87.7426 103.925 87.8151 104.097 87.8151 104.281C87.8151 104.347 87.8085 104.407 87.7953 104.459C87.7822 104.499 87.7624 104.545 87.736 104.598C86.8263 106.602 85.8308 108.111 84.7497 109.127C83.6817 110.142 82.4688 110.663 81.1107 110.689C80.2406 110.689 79.489 110.518 78.8562 110.175C78.2233 109.845 77.7025 109.417 77.2938 108.889C76.8851 108.349 76.5818 107.742 76.3841 107.07C76.1863 106.397 76.0874 105.725 76.0874 105.053C76.0874 104.38 76.1665 103.76 76.3247 103.194C76.4961 102.627 76.7334 102.132 77.0367 101.71C77.3531 101.288 77.7223 100.959 78.1442 100.721C78.5793 100.484 79.0539 100.365 79.5681 100.365C79.8714 100.365 80.168 100.431 80.4581 100.563C80.7613 100.682 81.0316 100.86 81.269 101.097C81.5063 101.321 81.6975 101.598 81.8425 101.928C81.9875 102.257 82.06 102.633 82.06 103.055C82.06 103.596 81.9677 104.103 81.7832 104.578C81.5986 105.053 81.3415 105.494 81.0119 105.903C80.6954 106.312 80.3131 106.687 79.8648 107.03C79.4165 107.373 78.9353 107.67 78.4211 107.92ZM77.8278 106.635C78.2365 106.463 78.6057 106.246 78.9353 105.982C79.2781 105.718 79.5681 105.428 79.8055 105.112C80.0428 104.795 80.2274 104.466 80.3592 104.123C80.4911 103.767 80.557 103.411 80.557 103.055C80.557 102.66 80.4581 102.363 80.2603 102.165C80.0626 101.954 79.8318 101.849 79.5681 101.849C79.2122 101.849 78.9089 101.948 78.6584 102.145C78.4079 102.343 78.2035 102.6 78.0453 102.917C77.8871 103.233 77.7684 103.589 77.6893 103.985C77.6234 104.367 77.5904 104.749 77.5904 105.132C77.5904 105.369 77.6102 105.62 77.6498 105.883C77.7025 106.147 77.7618 106.397 77.8278 106.635ZM94.4325 107.663C94.6566 108.164 95.0258 108.566 95.54 108.87C96.0542 109.16 96.6343 109.305 97.2803 109.305C97.4781 109.305 97.8011 109.278 98.2494 109.226C98.6977 109.16 99.2119 108.962 99.792 108.632C100.385 108.289 101.012 107.755 101.671 107.03C102.33 106.305 102.97 105.283 103.589 103.965C103.655 103.82 103.747 103.714 103.866 103.648C103.985 103.569 104.117 103.53 104.262 103.53C104.486 103.53 104.664 103.609 104.796 103.767C104.941 103.925 105.013 104.097 105.013 104.281C105.013 104.36 104.987 104.466 104.934 104.598C104.473 105.56 103.958 106.424 103.391 107.188C102.824 107.94 102.211 108.586 101.552 109.127C100.893 109.654 100.201 110.056 99.4756 110.333C98.7636 110.623 98.0319 110.768 97.2803 110.768C96.687 110.768 96.1267 110.676 95.5993 110.491C95.0851 110.307 94.6368 110.063 94.2545 109.759C93.8853 109.443 93.5887 109.094 93.3645 108.711C93.1536 108.316 93.0481 107.914 93.0481 107.505C93.0481 107.452 93.0547 107.38 93.0679 107.287C93.081 107.195 93.114 107.096 93.1667 106.991C93.2327 106.872 93.3184 106.767 93.4238 106.674C93.5425 106.569 93.7007 106.483 93.8985 106.417C94.4391 106.259 94.9335 106.068 95.3818 105.844C95.8432 105.606 96.2388 105.343 96.5684 105.053C96.898 104.763 97.1551 104.446 97.3397 104.103C97.5243 103.747 97.6166 103.365 97.6166 102.956C97.6166 102.6 97.4979 102.31 97.2606 102.086C97.0232 101.862 96.7332 101.75 96.3904 101.75C96.0344 101.75 95.685 101.875 95.3422 102.126C94.9994 102.363 94.6632 102.686 94.3336 103.095C94.0172 103.49 93.7139 103.952 93.4238 104.479C93.1338 104.993 92.8635 105.534 92.613 106.101C92.3757 106.668 92.1647 107.235 91.9801 107.802C91.7955 108.355 91.6439 108.87 91.5253 109.344C91.4857 109.489 91.4396 109.647 91.3868 109.819C91.3473 109.99 91.2813 110.148 91.1891 110.293C91.0968 110.452 90.9847 110.577 90.8528 110.669C90.721 110.775 90.5496 110.827 90.3386 110.827C90.1409 110.827 89.9497 110.742 89.7651 110.57C89.5805 110.412 89.4882 110.135 89.4882 109.74C89.4882 109.661 89.4882 109.357 89.4882 108.83C89.5014 108.303 89.5146 107.617 89.5278 106.773C89.541 105.916 89.5542 104.941 89.5673 103.846C89.5937 102.739 89.6135 101.572 89.6267 100.346C89.6399 99.1063 89.6596 97.834 89.686 96.5287C89.7124 95.2235 89.7322 93.9511 89.7453 92.7118C89.7585 91.4724 89.7717 90.299 89.7849 89.1915C89.8113 88.0708 89.831 87.082 89.8442 86.225C89.8574 85.3548 89.864 84.6494 89.864 84.1088C89.8772 83.5551 89.8838 83.2255 89.8838 83.12C89.8838 82.909 89.9629 82.7376 90.1211 82.6058C90.2793 82.4607 90.4507 82.3882 90.6353 82.3882C90.8463 82.3882 91.0242 82.4607 91.1693 82.6058C91.3143 82.7376 91.3868 82.9156 91.3868 83.1398C91.3868 83.1661 91.3802 83.4298 91.367 83.9308C91.367 84.4187 91.3605 85.0779 91.3473 85.9085C91.3341 86.7392 91.3143 87.7082 91.2879 88.8157C91.2748 89.9232 91.255 91.1033 91.2286 92.3558C91.2154 93.5952 91.1956 94.8741 91.1693 96.1925C91.1561 97.511 91.1363 98.7965 91.1099 100.049C91.0968 101.302 91.0836 102.495 91.0704 103.629C91.0572 104.763 91.044 105.765 91.0308 106.635C91.2418 105.962 91.5121 105.257 91.8417 104.519C92.1713 103.767 92.5603 103.075 93.0085 102.442C93.4568 101.809 93.9578 101.288 94.5116 100.88C95.0785 100.471 95.7048 100.267 96.3904 100.267C96.7727 100.267 97.1287 100.339 97.4583 100.484C97.788 100.616 98.0714 100.807 98.3087 101.058C98.5593 101.295 98.7504 101.578 98.8823 101.908C99.0273 102.238 99.0998 102.594 99.0998 102.976C99.0998 103.569 98.968 104.116 98.7043 104.617C98.4406 105.105 98.0912 105.547 97.6561 105.943C97.221 106.325 96.72 106.661 96.1531 106.951C95.5993 107.241 95.0258 107.479 94.4325 107.663ZM115.764 107.92C115.434 107.92 115.144 107.894 114.894 107.841C114.696 108.237 114.459 108.606 114.182 108.949C113.905 109.278 113.582 109.568 113.213 109.819C112.857 110.069 112.455 110.267 112.006 110.412C111.558 110.557 111.07 110.63 110.543 110.63C109.923 110.63 109.356 110.518 108.842 110.293C108.328 110.083 107.879 109.786 107.497 109.404C107.115 109.008 106.818 108.54 106.607 107.999C106.396 107.446 106.291 106.839 106.291 106.18C106.291 105.336 106.442 104.604 106.746 103.985C107.049 103.352 107.398 102.831 107.794 102.422C108.189 102 108.585 101.691 108.98 101.493C109.376 101.282 109.673 101.176 109.87 101.176C110.094 101.176 110.259 101.236 110.365 101.354C110.483 101.473 110.543 101.631 110.543 101.829C110.543 102.053 110.47 102.224 110.325 102.343C110.193 102.449 110.022 102.554 109.811 102.66C109.6 102.765 109.376 102.917 109.139 103.114C108.901 103.299 108.677 103.536 108.466 103.826C108.268 104.116 108.104 104.459 107.972 104.855C107.84 105.25 107.774 105.692 107.774 106.18C107.774 106.615 107.84 107.024 107.972 107.406C108.104 107.775 108.295 108.098 108.545 108.375C108.796 108.639 109.092 108.85 109.435 109.008C109.778 109.153 110.16 109.226 110.582 109.226C111.334 109.226 111.954 109.054 112.441 108.711C112.942 108.355 113.325 107.907 113.588 107.366C112.811 106.958 112.171 106.378 111.67 105.626C111.169 104.875 110.919 104.031 110.919 103.095C110.919 102.343 111.097 101.73 111.452 101.255C111.822 100.781 112.303 100.543 112.896 100.543C113.252 100.543 113.588 100.629 113.905 100.801C114.221 100.972 114.498 101.242 114.735 101.611C114.986 101.981 115.184 102.455 115.329 103.035C115.474 103.615 115.546 104.308 115.546 105.112C115.546 105.534 115.494 105.976 115.388 106.437C115.467 106.45 115.546 106.457 115.625 106.457C115.705 106.457 115.79 106.457 115.883 106.457C116.331 106.457 116.733 106.404 117.089 106.299C117.445 106.193 117.768 106.035 118.058 105.824C118.348 105.613 118.605 105.343 118.829 105.013C119.067 104.683 119.291 104.301 119.502 103.866C119.541 103.787 119.627 103.714 119.759 103.648C119.891 103.569 120.022 103.53 120.154 103.53C120.326 103.53 120.484 103.602 120.629 103.747C120.787 103.879 120.866 104.057 120.866 104.281C120.866 104.387 120.84 104.505 120.787 104.637C120.734 104.756 120.682 104.868 120.629 104.973C120.405 105.369 120.141 105.751 119.838 106.121C119.548 106.477 119.198 106.793 118.79 107.07C118.394 107.334 117.946 107.544 117.445 107.703C116.944 107.861 116.384 107.933 115.764 107.92ZM112.382 102.936C112.382 103.187 112.415 103.451 112.481 103.728C112.547 104.004 112.646 104.281 112.778 104.558C112.923 104.822 113.094 105.079 113.292 105.329C113.503 105.567 113.747 105.771 114.023 105.943C114.063 105.666 114.083 105.395 114.083 105.132C114.083 104.776 114.056 104.413 114.004 104.044C113.951 103.675 113.872 103.339 113.766 103.035C113.674 102.719 113.555 102.468 113.41 102.284C113.265 102.086 113.094 101.987 112.896 101.987C112.817 101.987 112.712 102.046 112.58 102.165C112.448 102.284 112.382 102.541 112.382 102.936ZM124.576 101.967C124.524 102.323 124.458 102.66 124.379 102.976C124.3 103.279 124.22 103.55 124.141 103.787C124.075 104.011 124.016 104.196 123.963 104.341C123.911 104.486 123.878 104.565 123.864 104.578C123.733 104.881 123.502 105.033 123.172 105.033C122.988 105.033 122.816 104.967 122.658 104.835C122.5 104.69 122.421 104.512 122.421 104.301C122.421 104.222 122.434 104.163 122.46 104.123C122.487 104.084 122.526 104.004 122.579 103.886C122.632 103.767 122.698 103.569 122.777 103.292C122.856 103.016 122.955 102.587 123.073 102.007C122.849 102.007 122.619 102 122.381 101.987C122.144 101.974 121.926 101.928 121.729 101.849C121.518 101.77 121.346 101.644 121.214 101.473C121.083 101.302 121.017 101.064 121.017 100.761C121.017 100.537 121.083 100.234 121.214 99.8513C121.333 99.4689 121.498 99.0931 121.709 98.724C121.92 98.3548 122.157 98.0384 122.421 97.7747C122.684 97.4978 122.948 97.3594 123.212 97.3594C123.515 97.3594 123.759 97.4714 123.944 97.6956C124.141 97.9197 124.293 98.1966 124.398 98.5262C124.504 98.8426 124.576 99.1788 124.616 99.5348C124.669 99.8908 124.695 100.201 124.695 100.464C124.919 100.464 125.137 100.464 125.348 100.464C125.572 100.451 125.783 100.445 125.981 100.445C126.732 100.445 127.306 100.609 127.701 100.939C128.097 101.269 128.295 101.809 128.295 102.561C128.295 102.864 128.275 103.18 128.235 103.51C128.196 103.84 128.149 104.182 128.097 104.538C128.044 104.881 127.998 105.224 127.958 105.567C127.919 105.91 127.899 106.246 127.899 106.575C127.899 107.05 127.965 107.446 128.097 107.762C128.229 108.065 128.393 108.309 128.591 108.494C128.789 108.678 129 108.81 129.224 108.889C129.448 108.955 129.653 108.988 129.837 108.988C130.404 108.988 130.938 108.804 131.439 108.434C131.94 108.065 132.402 107.624 132.823 107.109C133.245 106.582 133.621 106.028 133.951 105.448C134.294 104.868 134.577 104.36 134.801 103.925C134.867 103.807 134.959 103.714 135.078 103.648C135.197 103.583 135.322 103.55 135.454 103.55C135.691 103.55 135.876 103.629 136.008 103.787C136.139 103.932 136.205 104.097 136.205 104.281C136.205 104.413 136.179 104.532 136.126 104.637C135.823 105.178 135.467 105.791 135.058 106.477C134.663 107.149 134.208 107.782 133.694 108.375C133.179 108.968 132.599 109.469 131.953 109.878C131.32 110.287 130.622 110.491 129.857 110.491C129.382 110.491 128.934 110.399 128.512 110.214C128.09 110.043 127.721 109.792 127.405 109.463C127.101 109.12 126.857 108.705 126.673 108.217C126.488 107.716 126.396 107.156 126.396 106.536C126.396 105.877 126.462 105.224 126.594 104.578C126.726 103.919 126.791 103.292 126.791 102.699C126.791 102.449 126.732 102.264 126.613 102.145C126.508 102.014 126.264 101.948 125.882 101.948C125.697 101.948 125.493 101.948 125.269 101.948C125.058 101.948 124.827 101.954 124.576 101.967ZM123.251 100.504C123.251 100.412 123.245 100.293 123.232 100.148C123.232 99.9897 123.218 99.8381 123.192 99.693C123.179 99.548 123.153 99.4228 123.113 99.3173C123.087 99.2118 123.054 99.1591 123.014 99.1591C122.975 99.1591 122.922 99.2118 122.856 99.3173C122.803 99.4096 122.744 99.5282 122.678 99.6733C122.612 99.8051 122.553 99.9501 122.5 100.108C122.447 100.267 122.408 100.398 122.381 100.504H123.251Z" fill="white"></path> </svg> 